<svg width="40" height="44" viewBox="0 0 40 44" fill="none" xmlns="http://www.w3.org/2000/svg">
<path d="M36.6076 9.75C35.7076 7.25 32.3076 0.95 30.7076 0.15C30.4076 -0.05 29.6076 -0.05 29.3076 0.15C28.5076 0.65 27.2076 2.55 26.0076 4.25C23.9076 3.45 21.6076 3.05 19.1076 3.05C16.9076 3.05 15.0076 3.35 12.6076 4.15C11.6076 2.75 10.0076 0.45 9.20763 0.0500001C8.80763 -0.0499999 8.30763 0.05 8.00763 0.15C6.60763 0.75 3.50763 6.15 2.80763 9.85C0.907628 11.35 -0.392372 13.95 0.107628 17.95C0.707628 23.05 1.70763 29.35 2.10763 31.05C2.50763 32.85 3.30763 33.45 4.20763 34.15C6.90763 36.05 17.3076 42.15 18.7076 42.75C19.4076 43.05 19.8076 43.05 19.8076 43.05C20.2076 43.05 20.7076 42.85 21.0076 42.75C22.3076 42.15 32.0076 36.75 35.4076 34.15C36.4076 33.45 37.1076 32.55 37.4076 31.25C37.9076 29.35 39.1076 21.55 39.6076 17.65C40.0076 13.45 37.9076 10.65 36.6076 9.75ZM36.9076 18.45L35.3076 27.05C33.8076 27.75 32.5076 27.85 30.8076 28.15C30.5076 28.25 30.5076 28.55 30.9076 28.65C32.0076 29.05 33.5076 28.85 35.0076 29.05C34.8076 30.75 34.3076 31.35 33.4076 32.05C31.5076 33.45 21.6076 38.85 19.9076 39.65L19.3076 39.85L18.7076 39.65C17.3076 39.05 8.80763 34.25 6.30763 32.35C5.10763 31.45 4.70763 30.95 4.40763 29.05C5.50763 28.85 7.50763 28.85 8.00763 28.65C8.40763 28.55 8.40763 28.15 8.00763 28.15C6.50763 27.95 5.00763 27.55 4.00763 27.05C3.60763 24.55 2.80763 18.85 2.70763 16.85C2.70763 14.55 3.50763 13.05 5.20763 12.15C6.80763 11.35 9.40763 10.25 9.70763 9.85C11.3076 9.05 10.1076 6.35 8.10763 7.55L5.50763 8.75C6.50763 6.65 8.20763 3.45 8.60763 3.35C8.80763 3.05 11.0076 6.15 11.8076 7.65C12.6076 9.75 15.1076 8.65 13.8076 6.45C15.3076 5.95 16.8076 5.65 19.1076 5.65C21.0076 5.65 23.0076 5.85 24.7076 6.35C23.5076 9.15 26.3076 9.55 26.9076 7.75C27.6076 6.65 29.8076 3.45 30.1076 3.35C30.7076 3.45 32.5076 6.15 33.6076 8.55L30.8076 7.35C28.7076 6.35 27.5076 9.05 30.0076 10.05C33.3076 11.65 37.1076 12.25 37.0076 16.45C37.0076 17.05 36.9076 17.75 36.9076 18.45Z" fill="black"/>
<path d="M32.3084 17.95C31.3084 15.55 29.4084 15.05 27.2084 15.75C25.2084 16.45 24.4084 17.45 22.0084 17.45C20.6084 17.45 18.7084 17.35 16.2084 17.45C14.0084 17.45 12.3084 15.55 10.0084 15.55C8.80843 15.55 7.70842 16.15 7.10842 17.45C6.30842 19.15 4.80843 23.55 5.10843 24.75C5.30843 25.35 7.60843 26.65 8.30843 26.95C8.60843 27.05 8.80843 27.05 9.00843 26.75C11.3084 24.15 14.9084 21.85 19.1084 21.75C23.3084 21.65 27.1084 23.65 29.6084 26.45C30.0084 26.85 30.4084 27.05 30.8084 26.85C31.7084 26.45 33.9084 25.15 34.0084 24.75C34.3084 23.95 32.8084 19.55 32.3084 17.95ZM10.8084 20.85C10.1084 20.85 9.30843 20.15 9.30843 19.35C9.30843 18.65 10.0084 17.95 10.8084 17.95C11.6084 17.95 12.3084 18.65 12.3084 19.45C12.3084 20.35 11.6084 20.85 10.8084 20.85ZM27.8084 20.85C27.0084 20.85 26.3084 20.15 26.3084 19.45C26.3084 18.65 26.9084 17.95 27.8084 17.95C28.6084 17.95 29.4084 18.55 29.4084 19.45C29.4084 20.35 28.6084 20.85 27.8084 20.85Z" fill="black"/>
<path d="M23.2078 31.5499C22.3078 31.6499 20.1078 31.4499 20.1078 30.6499C20.1078 30.0499 22.7078 27.2499 22.8078 26.5499C22.9078 25.8499 22.5078 25.0499 21.8078 24.9499C20.8078 24.8499 17.5078 24.7499 16.6078 24.9499C15.8078 25.1499 15.4078 26.1499 15.9078 26.8499C16.3078 27.5499 18.6078 30.1499 18.7078 30.4499C19.0078 31.3499 16.3078 31.6499 15.3078 31.5499C13.9078 31.4499 15.5078 33.5499 17.6078 33.1499C18.3078 33.0499 19.2078 32.3499 19.3078 32.2499C19.4078 32.2499 20.1078 33.0499 21.2078 33.2499C23.2078 33.5499 25.0078 31.4499 23.2078 31.5499Z" fill="black"/>
</svg>
